<?xml version="1.0" encoding="UTF-8"?>
<svg id="Layer_1" data-name="Layer 1" xmlns="http://www.w3.org/2000/svg" version="1.1" viewBox="0 0 140 40">
  <defs>
    <style>
      .cls-1 {
        isolation: isolate;
      }

      .cls-2 {
        fill: #fff;
        stroke-width: 0px;
      }
    </style>
  </defs>
  <g class="cls-1">
    <g class="cls-1">
      <g class="cls-1">
        <path class="cls-2" d="M14.3,19.7c2.1,0,3.8.5,5,1.4s1.9,2.4,1.9,4.5v8.6c0,.5-.1.9-.3,1.2-.2.3-.5.5-.9.8-.6.3-1.4.6-2.3.9-1,.2-2.1.4-3.3.4-2.3,0-4-.5-5.3-1.3s-1.9-2.2-1.9-3.9.5-2.8,1.6-3.6c1-.8,2.5-1.3,4.4-1.5l5.1-.5v-1c0-1.2-.4-2.1-1.1-2.6s-1.7-.8-2.9-.8-2,.1-2.9.4c-.9.3-1.7.6-2.4,1-.2-.2-.4-.4-.5-.6s-.2-.5-.2-.7,0-.6.2-.8c.2-.2.4-.4.8-.6.6-.3,1.4-.6,2.2-.8s1.8-.3,2.8-.3h0ZM14.3,35c1,0,1.9,0,2.5-.3s1.1-.4,1.4-.6v-5.2l-4.5.5c-1.3.1-2.2.4-2.8.9-.6.5-.9,1.1-.9,2s.4,1.6,1.1,2.1,1.8.7,3.2.7h0Z"/>
        <path class="cls-2" d="M26.4,20.2c.1,0,.3-.1.6-.2s.5,0,.8,0c1,0,1.5.5,1.5,1.3v9.3c0,1.6.4,2.7,1.2,3.3.8.7,2,1,3.4,1s1.8,0,2.5-.3c.7-.2,1.2-.4,1.6-.6v-13.8c.1,0,.3-.1.6-.2s.5,0,.8,0c1,0,1.6.5,1.6,1.3v12.6c0,.5,0,.9-.2,1.2s-.5.6-1,.9c-.6.3-1.3.6-2.3.9s-2.2.4-3.5.4c-2.4,0-4.3-.5-5.6-1.6s-1.9-2.7-1.9-5v-10.5h0Z"/>
        <path class="cls-2" d="M58.2,32.4c0,1.5-.6,2.8-1.7,3.6-1.1.9-2.8,1.3-4.9,1.3s-1.8,0-2.5-.2-1.4-.4-2-.6c-.5-.2-1-.5-1.3-.9-.3-.3-.5-.7-.5-1s0-.6.2-.8c.2-.3.4-.5.7-.7.7.5,1.4.9,2.3,1.3s1.9.6,3,.6c2.5,0,3.8-.8,3.8-2.5s-.8-2.3-2.5-2.7l-3-.8c-1.5-.4-2.5-1-3.2-1.7-.7-.7-1-1.7-1-2.8s.1-1.2.4-1.8.7-1.1,1.2-1.5,1.2-.8,2-1c.8-.2,1.7-.4,2.8-.4,1.7,0,3,.2,4.1.7,1,.5,1.6,1.1,1.6,1.7s0,.6-.2.8-.4.4-.6.5c-.4-.3-1-.6-1.8-.9s-1.7-.5-2.8-.5-2,.2-2.6.6c-.6.4-1,1-1,1.7s.2,1,.5,1.4c.4.4,1,.7,1.8.9l2.5.6c1.6.4,2.9,1,3.7,1.8s1.2,1.9,1.2,3.3h0Z"/>
        <path class="cls-2" d="M70,19.7c1.1,0,2.2.2,3.1.5,1,.4,1.8.9,2.5,1.6s1.3,1.6,1.7,2.8.6,2.4.6,3.9-.2,2.8-.6,3.9c-.4,1.1-1,2-1.7,2.8s-1.6,1.3-2.7,1.6c-1,.3-2.2.5-3.4.5s-2.2-.1-3.2-.4c-.9-.3-1.7-.6-2.3-1-.5-.3-.9-.6-1-.9s-.3-.7-.3-1.2V13.4c.1,0,.3-.1.6-.2.2,0,.5,0,.8,0,1,0,1.5.4,1.5,1.3v6.5c.5-.3,1.2-.6,1.9-.9.7-.2,1.6-.4,2.6-.4h0ZM69.6,22.1c-.8,0-1.6.1-2.3.5-.7.3-1.3.7-1.8,1.1v10.2c.4.3.9.5,1.6.8.7.2,1.5.4,2.4.4s1.6-.1,2.2-.4c.7-.2,1.2-.7,1.7-1.2s.9-1.2,1.1-2c.3-.8.4-1.8.4-2.9s-.1-2.1-.4-2.9c-.3-.8-.6-1.5-1.1-2s-1.1-.9-1.7-1.2c-.7-.2-1.4-.4-2.2-.4h0Z"/>
        <path class="cls-2" d="M84.5,30.2c.7,3.2,2.7,4.7,6.2,4.7s1.9-.2,2.8-.5,1.5-.7,2-1.1c.6.3.9.8.9,1.4s-.2.7-.4,1c-.3.3-.7.6-1.2.8-.5.2-1.1.4-1.8.6-.7.1-1.4.2-2.2.2-2.8,0-5-.8-6.7-2.3-1.6-1.5-2.4-3.7-2.4-6.7s.2-2.6.6-3.7.9-2,1.7-2.7c.7-.8,1.6-1.3,2.6-1.7s2.1-.6,3.2-.6,2.1.2,3,.5,1.7.9,2.4,1.5c.7.7,1.2,1.5,1.6,2.4.4.9.6,1.9.6,3s-.1.9-.4,1.1-.6.4-1,.4l-11.2,1.6h0ZM89.5,22c-1.5,0-2.7.5-3.7,1.5s-1.5,2.5-1.5,4.4l10-1.4c-.1-1.3-.6-2.4-1.4-3.3-.8-.9-1.9-1.3-3.4-1.3h0Z"/>
        <path class="cls-2" d="M115.5,34.1c0,.5,0,.9-.3,1.1s-.5.5-1,.8c-.5.3-1.2.6-2.1.9s-1.9.4-3.1.4-2.5-.2-3.6-.5-2-.9-2.8-1.6c-.8-.7-1.4-1.6-1.8-2.7s-.6-2.4-.6-4,.2-2.9.7-4,1-2,1.8-2.8c.7-.7,1.6-1.3,2.6-1.6s2.1-.5,3.2-.5,1.5.1,2.2.3c.7.2,1.3.4,1.9.7v-7.3c.1,0,.3-.1.6-.2.2,0,.5,0,.8,0,1,0,1.6.4,1.6,1.3v19.7h0ZM112.6,23.3c-.5-.3-1-.6-1.7-.9-.6-.2-1.3-.4-2.2-.4s-1.5.1-2.1.3-1.2.6-1.8,1.1-.9,1.2-1.2,2c-.3.9-.4,1.9-.4,3.1,0,2.2.5,3.8,1.6,4.8s2.5,1.5,4.2,1.5,1.5,0,2.1-.3,1-.4,1.5-.7v-10.7Z"/>
        <path class="cls-2" d="M132.8,32.4c0,1.5-.6,2.8-1.7,3.6s-2.8,1.3-4.9,1.3-1.8,0-2.5-.2c-.8-.2-1.4-.4-2-.6-.5-.2-1-.5-1.3-.9-.3-.3-.4-.7-.4-1s0-.6.2-.8c.2-.3.4-.5.7-.7.7.5,1.4.9,2.3,1.3.9.4,1.9.6,3,.6,2.5,0,3.8-.8,3.8-2.5s-.8-2.3-2.5-2.7l-3-.8c-1.5-.4-2.6-1-3.2-1.7-.7-.7-1-1.7-1-2.8s.1-1.2.4-1.8.7-1.1,1.2-1.5,1.2-.8,2-1,1.7-.4,2.8-.4c1.7,0,3,.2,4.1.7s1.6,1.1,1.6,1.7,0,.6-.2.8-.4.4-.6.5c-.4-.3-1.1-.6-1.9-.9s-1.7-.5-2.8-.5-1.9.2-2.6.6c-.6.4-1,1-1,1.7s.2,1,.5,1.4c.4.4,1,.7,1.8.9l2.5.6c1.6.4,2.9,1,3.7,1.8.8.8,1.2,1.9,1.2,3.3h0Z"/>
      </g>
    </g>
  </g>
  <path class="cls-2" d="M113.8,8.9h0c-6-2.9-14.8-4.8-24.6-4.8-9.7,0-18.4,1.9-24.4,4.8h0c-.3,0-.6.5-.6.8,0,.5.4.9.9.9s.2,0,.3,0h0c5.6-2.8,14.1-4.6,23.7-4.6h.2c9.5,0,18.2,1.8,23.8,4.6h0c.2,0,.2,0,.3,0,.5,0,.9-.4.9-.9s-.2-.6-.5-.8c0,0,0,0,0,0Z"/>
</svg>