<?xml version="1.0" encoding="UTF-8"?>
<svg id="Layer_1" data-name="Layer 1" xmlns="http://www.w3.org/2000/svg" version="1.1" viewBox="0 0 107.3 29.3">
  <defs>
    <style>
      .cls-1 {
        stroke-width: 0px;
      }

      .cls-1, .cls-2 {
        fill: #000;
      }

      .cls-3 {
        isolation: isolate;
      }

      .cls-2 {
        stroke: #000;
        stroke-miterlimit: 10;
        stroke-width: .5px;
      }
    </style>
  </defs>
  <g class="cls-3">
    <path class="cls-1" d="M7.5,13.9c1.7,0,3.1.4,4.1,1.2,1,.8,1.5,2,1.5,3.6v7c0,.4,0,.8-.2,1s-.4.4-.8.6c-.5.3-1.1.5-1.9.7-.8.2-1.7.3-2.7.3-1.9,0-3.3-.4-4.3-1.1-1-.7-1.5-1.8-1.5-3.2s.4-2.3,1.3-3,2.1-1.1,3.6-1.2l4.2-.4v-.8c0-1-.3-1.7-.9-2.2-.6-.5-1.4-.7-2.4-.7s-1.6.1-2.3.4c-.7.2-1.4.5-2,.8-.2-.1-.3-.3-.4-.5-.1-.2-.2-.4-.2-.6s0-.5.2-.7.4-.4.6-.5c.5-.3,1.2-.5,1.8-.6.7-.1,1.4-.2,2.3-.2,0,0,0,0,0,0ZM7.5,26.5c.8,0,1.5,0,2.1-.2s.9-.3,1.2-.5v-4.3l-3.7.4c-1,.1-1.8.3-2.3.7s-.7.9-.7,1.6.3,1.3.9,1.7,1.4.6,2.6.6c0,0,0,0,0,0Z"/>
    <path class="cls-1" d="M17.4,14.3c.1,0,.2,0,.5-.1s.4,0,.7,0c.8,0,1.2.4,1.2,1.1v7.6c0,1.3.3,2.2,1,2.8.7.5,1.6.8,2.8.8s1.5,0,2-.2c.5-.2,1-.3,1.3-.5v-11.3c.1,0,.2,0,.5-.1s.4,0,.6,0c.9,0,1.3.4,1.3,1.1v10.3c0,.4,0,.8-.2,1-.1.2-.4.5-.8.7-.5.3-1.1.5-1.9.7-.8.2-1.8.4-2.9.4-2,0-3.5-.4-4.6-1.3-1.1-.9-1.6-2.2-1.6-4.1,0,0,0-8.7,0-8.7Z"/>
    <path class="cls-1" d="M43.5,24.4c0,1.3-.5,2.3-1.4,3s-2.3,1.1-4,1.1-1.5,0-2.1-.2c-.6-.1-1.2-.3-1.6-.5s-.8-.5-1-.7-.4-.5-.4-.8,0-.5.2-.7c.1-.2.3-.4.6-.6.5.4,1.2.8,1.9,1,.7.3,1.5.5,2.4.5,2.1,0,3.1-.7,3.1-2.1s-.7-1.9-2-2.2l-2.5-.6c-1.2-.3-2.1-.8-2.6-1.4-.5-.6-.8-1.4-.8-2.3s0-1,.3-1.5c.2-.5.5-.9,1-1.2.4-.4,1-.6,1.6-.9.6-.2,1.4-.3,2.3-.3,1.4,0,2.5.2,3.3.6s1.3.9,1.3,1.4,0,.5-.2.7c-.1.2-.3.4-.5.5-.4-.2-.9-.5-1.5-.8-.7-.3-1.4-.4-2.3-.4s-1.6.2-2.1.5c-.5.3-.8.8-.8,1.4s.2.8.5,1.2.8.5,1.5.7l2,.5c1.3.3,2.3.8,3,1.5.7.7,1,1.6,1,2.7Z"/>
    <path class="cls-1" d="M53.2,13.9c.9,0,1.8.1,2.5.4s1.5.7,2.1,1.3c.6.6,1,1.3,1.4,2.3.3.9.5,2,.5,3.2s-.2,2.3-.5,3.2c-.3.9-.8,1.7-1.4,2.3-.6.6-1.3,1-2.2,1.3-.8.3-1.8.4-2.8.4s-1.8-.1-2.6-.3c-.8-.2-1.4-.5-1.9-.8-.4-.3-.7-.5-.9-.8s-.2-.6-.2-1V8.8c0,0,.2,0,.5-.1s.4,0,.7,0c.8,0,1.2.4,1.2,1.1v5.3c.4-.3,1-.5,1.6-.7.6-.2,1.3-.3,2.1-.3ZM52.8,15.9c-.7,0-1.3.1-1.9.4-.6.2-1,.5-1.4.9v8.4c.3.2.7.4,1.3.6.6.2,1.2.3,2,.3s1.3-.1,1.8-.3,1-.5,1.4-1c.4-.4.7-1,.9-1.6.2-.7.3-1.5.3-2.4s-.1-1.7-.3-2.4c-.2-.7-.5-1.2-.9-1.6-.4-.4-.9-.7-1.4-1-.5-.2-1.1-.3-1.8-.3,0,0,0,0,0,0Z"/>
    <path class="cls-1" d="M65,22.5c.5,2.6,2.2,3.9,5.1,3.9s1.6-.1,2.3-.4,1.2-.6,1.6-.9c.5.3.7.6.7,1.1s-.1.5-.4.8c-.2.3-.6.5-1,.7-.4.2-.9.4-1.5.5-.6.1-1.2.2-1.8.2-2.3,0-4.1-.6-5.4-1.9s-2-3.1-2-5.5.2-2.1.5-3,.8-1.6,1.4-2.2c.6-.6,1.3-1.1,2.1-1.4s1.7-.5,2.6-.5,1.7.1,2.5.4,1.4.7,1.9,1.3c.5.5,1,1.2,1.3,1.9s.5,1.6.5,2.5,0,.8-.3.9c-.2.2-.5.3-.8.3l-9.2,1.3h0s0,0,0,0ZM69.1,15.8c-1.2,0-2.2.4-3,1.3s-1.2,2-1.2,3.6l8.2-1.1c0-1.1-.5-2-1.1-2.7s-1.6-1.1-2.8-1.1Z"/>
    <path class="cls-1" d="M90.5,25.8c0,.4,0,.7-.2.9s-.4.4-.8.6c-.4.3-1,.5-1.7.7s-1.6.3-2.5.3-2.1-.1-2.9-.4-1.7-.7-2.3-1.3-1.1-1.3-1.5-2.2c-.3-.9-.5-2-.5-3.2s.2-2.4.5-3.3c.4-.9.8-1.7,1.4-2.3.6-.6,1.3-1,2.1-1.3s1.7-.4,2.6-.4,1.2,0,1.8.2,1.1.4,1.5.6v-6c0,0,.2,0,.5-.1s.4,0,.6,0c.8,0,1.3.4,1.3,1.1v16.1h0s0,0,0,0ZM88.1,16.9c-.4-.3-.8-.5-1.4-.7-.5-.2-1.1-.3-1.8-.3s-1.2,0-1.7.3c-.5.2-1,.5-1.4.9-.4.4-.8,1-1,1.7-.2.7-.4,1.5-.4,2.5,0,1.8.4,3.1,1.3,4s2,1.2,3.5,1.2,1.3,0,1.7-.2.8-.3,1.2-.5v-8.8s0,0,0,0Z"/>
    <path class="cls-1" d="M104.7,24.4c0,1.3-.5,2.3-1.4,3-.9.7-2.3,1.1-4,1.1s-1.4,0-2.1-.2c-.6-.1-1.2-.3-1.6-.5s-.8-.5-1-.7c-.2-.3-.4-.5-.4-.8s0-.5.2-.7.3-.4.6-.6c.5.4,1.2.8,1.9,1,.7.3,1.5.5,2.4.5,2.1,0,3.1-.7,3.1-2.1s-.7-1.9-2.1-2.2l-2.5-.6c-1.2-.3-2.1-.8-2.6-1.4-.6-.6-.8-1.4-.8-2.3s0-1,.3-1.5.5-.9,1-1.2,1-.6,1.6-.9,1.4-.3,2.3-.3c1.4,0,2.5.2,3.4.6.8.4,1.3.9,1.3,1.4s0,.5-.2.7c-.1.2-.3.4-.5.5-.4-.2-.9-.5-1.5-.8s-1.4-.4-2.3-.4-1.6.2-2.1.5c-.5.3-.8.8-.8,1.4s.2.8.4,1.2.8.5,1.5.7l2.1.5c1.3.3,2.4.8,3,1.5s1,1.6,1,2.7h0Z"/>
  </g>
  <path class="cls-2" d="M89.1,5.1h0c-4.9-2.4-12.1-3.9-20.2-3.9-7.9,0-15.1,1.6-20,3.9h0c-.3,0-.5.4-.5.7,0,.4.3.7.7.7s.2,0,.3,0h0c4.6-2.3,11.6-3.8,19.4-3.8h.1c7.8,0,14.9,1.5,19.5,3.8h0c.1,0,.2,0,.3,0,.4,0,.7-.3.7-.7s-.1-.6-.3-.7c0,0,0,0,0,0Z"/>
</svg>